<svg version="1.1" id="Layer_1" xmlns="http://www.w3.org/2000/svg" xmlns:xlink="http://www.w3.org/1999/xlink" x="0px" y="0px"
	 width="100%" viewBox="0 0 863 1102" enable-background="new 0 0 863 1102" xml:space="preserve" style="background-color: transparent;">
<!-- <path fill="#000000" opacity="1.000000" stroke="none" 
	d="
M302.000000,1.000005 
	C489.313293,1.000000 676.626587,1.000000 863.969971,1.000000 
	C863.969971,368.274017 863.969971,735.548035 863.969971,1102.911011 
	C576.423462,1102.911011 288.846924,1102.911011 1.135182,1102.911011 
	C1.135182,735.666687 1.135182,368.333344 1.135182,1.000000 
	C87.102486,1.000000 173.093292,1.000000 259.524170,1.406338 
	C258.780914,2.206101 257.624969,2.765280 256.409851,2.965503 
	C249.557602,4.094569 242.669998,5.024678 235.847595,6.305704 
	C234.499191,6.558887 233.383011,8.048869 232.159744,8.968479 
	C233.287079,10.220359 234.375977,11.510838 235.568192,12.697540 
	C235.873535,13.001488 236.525238,12.927654 236.984161,13.111407 
	C266.195312,24.807177 293.441223,39.445137 314.403900,63.808838 
	C321.986969,72.622185 327.765472,82.439186 331.536194,93.301872 
	C338.316040,112.833115 336.872192,132.332535 330.662170,151.831818 
	C318.477264,190.092209 299.697327,225.010941 278.013794,258.602478 
	C252.534454,298.074341 224.304535,335.557831 196.295700,373.208130 
	C175.417984,401.272552 157.243500,430.860107 143.883011,463.305573 
	C130.808167,495.057343 121.134071,527.673706 119.161659,562.122375 
	C117.915230,583.891357 118.968483,605.722656 123.379158,627.077942 
	C130.957962,663.772339 143.107651,698.889282 161.300369,731.872864 
	C176.933014,760.214966 195.931976,785.662720 220.920746,806.447937 
	C239.591431,821.977783 260.324707,834.179810 282.871063,842.863281 
	C302.016754,850.237122 321.518585,856.976685 341.328278,862.247620 
	C358.356659,866.778503 375.932281,870.039978 393.469116,871.652039 
	C411.101044,873.272827 429.108459,873.015381 446.551086,868.906311 
	C473.273804,862.611023 499.848907,855.686829 526.451599,848.892273 
	C527.703491,848.572510 528.615601,846.922119 529.685913,845.891418 
	C528.133057,845.346252 526.536621,844.229919 525.034180,844.344727 
	C510.669922,845.442322 496.342621,847.366150 481.963898,847.856873 
	C457.220062,848.701477 432.538330,847.491577 407.938873,844.147888 
	C377.309235,839.984558 347.883484,832.109314 320.374847,817.781128 
	C285.511261,799.622192 259.852509,772.675537 244.363907,736.507019 
	C228.092636,698.510925 221.768860,658.880859 224.743820,617.506714 
	C226.183777,597.480591 228.012482,577.615234 231.929199,557.927673 
	C241.184280,511.406647 256.790222,467.174164 280.149292,425.858795 
	C300.362427,390.107635 325.392456,357.681702 350.860840,325.595093 
	C370.270264,301.141937 388.582428,275.981415 401.825043,247.478989 
	C415.943176,217.092209 423.849426,185.056320 426.838806,151.843506 
	C428.519196,133.173752 425.874512,114.822067 419.932678,96.924530 
	C412.684387,75.091881 402.204437,55.128345 384.428528,40.231495 
	C361.169403,20.739544 334.599823,7.629292 304.285492,2.886406 
	C303.445831,2.755035 302.758392,1.650666 302.000000,1.000005 
M693.058899,908.620422 
	C692.913757,909.016846 692.768616,909.413269 692.623474,909.809631 
	C693.100037,909.552795 693.576660,909.295959 694.437134,908.826294 
	C694.451538,908.461365 694.465881,908.096436 694.480225,907.731506 
	C694.115234,907.932678 693.750244,908.133789 693.058899,908.620422 
M57.910355,895.575989 
	C68.989120,914.889099 80.559387,933.975952 95.826965,950.256287 
	C111.039131,966.477661 126.543495,982.580200 143.274872,997.182068 
	C163.823471,1015.115295 186.962341,1029.662231 212.131943,1040.405151 
	C228.270676,1047.293335 244.646133,1054.012817 261.491943,1058.763794 
	C283.911591,1065.086792 306.794861,1069.913818 329.667480,1074.428345 
	C343.755798,1077.209106 358.182251,1078.325439 372.482208,1079.968750 
	C382.513336,1081.121338 392.577789,1082.021851 402.645081,1082.807861 
	C409.588287,1083.350098 416.563568,1083.809814 423.521240,1083.767090 
	C437.066986,1083.683960 449.020172,1078.295532 460.450134,1071.665283 
	C489.915527,1054.572998 520.369995,1039.500977 551.501160,1025.670410 
	C582.379211,1011.952332 613.989075,1002.573547 648.222107,1006.066589 
	C659.065308,1007.173035 669.977844,1008.409180 680.590515,1010.783997 
	C698.359985,1014.760376 715.883484,1019.826050 733.591980,1024.095703 
	C736.258057,1024.738403 741.215881,1024.448975 741.899170,1023.036133 
	C743.546448,1019.629822 744.750549,1014.738892 743.487915,1011.467773 
	C741.075623,1005.217834 737.010620,999.555420 733.296204,993.868042 
	C722.143127,976.790894 708.007812,962.395081 693.213989,948.441956 
	C682.628052,938.457642 671.623230,929.251282 659.133484,921.838257 
	C640.053833,910.513977 619.550110,902.720337 597.411804,901.307068 
	C581.374817,900.283325 565.164062,901.394165 549.063904,902.208679 
	C541.521667,902.590271 533.643555,903.391541 526.637390,905.963562 
	C507.069641,913.146667 487.158325,918.331360 466.381165,920.142151 
	C444.282196,922.067993 422.213654,925.221130 400.084442,925.714539 
	C367.144348,926.449036 334.161072,925.418396 301.199829,924.906555 
	C293.766571,924.791138 286.353455,923.293640 278.921478,923.201050 
	C270.723145,923.098816 262.260223,921.324646 254.472641,925.822327 
	C247.870102,929.635681 245.702728,935.439331 250.259903,941.105835 
	C257.513702,950.125488 266.178314,957.649414 278.149353,959.919128 
	C292.611206,962.661194 307.224365,964.757263 321.522675,968.176025 
	C345.998016,974.028137 370.300049,980.614136 394.618469,987.103149 
	C397.912170,987.982056 400.880066,990.081848 403.998840,991.616272 
	C403.970306,992.198425 403.941772,992.780640 403.913239,993.362793 
	C399.564026,995.229309 395.278931,997.265991 390.854431,998.932556 
	C372.309998,1005.917847 352.694000,1007.374329 333.270905,1008.750183 
	C310.539001,1010.360413 287.759155,1008.969604 265.468079,1003.628418 
	C229.743149,995.068420 197.590698,979.232483 169.137909,955.861572 
	C151.575775,941.436096 135.957855,925.234924 122.840645,906.687317 
	C99.548225,873.751953 82.201736,837.867249 70.209755,799.383118 
	C63.197651,776.880066 57.854073,753.925842 56.283081,730.426331 
	C55.277622,715.386230 56.406116,700.177246 57.022861,685.062073 
	C57.695702,668.572021 61.601463,652.617920 66.566765,636.966492 
	C74.769592,611.109802 87.264236,587.436951 103.475212,565.676392 
	C105.006790,563.620544 105.840302,560.569580 105.872246,557.966797 
	C105.947426,551.841248 105.056747,545.706726 105.070114,539.576965 
	C105.098808,526.414856 108.155586,513.999390 114.826157,502.513763 
	C115.872841,500.711609 115.893181,498.313416 116.388092,496.190796 
	C114.301529,496.603790 112.057907,496.656769 110.153572,497.487488 
	C96.476707,503.453735 84.401360,512.000305 73.581566,522.090759 
	C56.104603,538.389526 42.332222,557.666138 34.190769,580.101196 
	C28.294313,596.349854 23.879126,613.315247 20.673298,630.313660 
	C17.032019,649.621094 14.464796,669.261658 13.305093,688.868225 
	C12.237785,706.912659 13.090163,725.137939 14.160501,743.220520 
	C15.028948,757.892334 16.658875,772.624512 19.380058,787.060547 
	C26.518835,824.932556 39.090061,861.004211 57.910355,895.575989 
M637.133179,340.327209 
	C631.925598,323.566071 626.569946,306.849030 621.554749,290.030518 
	C617.128418,275.186676 617.879822,260.651398 626.846436,247.590958 
	C636.125183,234.075928 646.052429,221.005035 655.741821,207.773438 
	C659.586914,202.522797 663.555298,197.362457 667.467468,192.160995 
	C639.070862,195.207581 616.851807,208.210831 600.220581,230.988327 
	C599.705627,230.520660 599.190674,230.052994 598.675659,229.585327 
	C602.257690,220.612671 605.839661,211.640015 609.899414,201.470718 
	C607.262390,202.578323 605.927673,202.876221 604.906799,203.610535 
	C598.463196,208.245575 592.073242,212.955795 585.695435,217.681534 
	C569.414673,229.745056 563.466675,246.641708 564.276672,266.048737 
	C564.653137,275.068604 566.447266,284.146606 568.600769,292.953186 
	C575.203552,319.954681 585.907715,345.577026 597.147400,370.845245 
	C616.071655,413.389221 624.879822,458.103424 627.828613,504.160461 
	C628.812134,519.520752 628.663757,535.029785 627.848022,550.408020 
	C626.990417,566.574402 625.623901,582.822632 622.874878,598.758179 
	C616.353455,636.561768 603.023499,671.471558 577.047729,700.747253 
	C563.923706,715.538513 548.496033,727.002075 530.707947,735.233398 
	C501.588470,748.708313 470.845001,753.296082 439.046753,749.921143 
	C422.788818,748.195679 406.609711,745.579163 390.472565,742.898254 
	C364.668488,738.611389 344.277679,725.067627 328.433197,704.676819 
	C308.689087,679.267334 300.235107,649.619385 299.325989,618.058838 
	C298.881317,602.621094 300.651215,586.859985 303.514923,571.639587 
	C309.811432,538.173950 324.050629,508.080688 345.717285,481.641327 
	C348.045593,478.800140 350.267456,475.871735 353.314362,471.997528 
	C346.258789,471.997528 340.621552,472.019012 334.984619,471.990875 
	C330.237366,471.967163 326.196686,470.385986 323.570068,466.236084 
	C322.092285,463.901337 320.884796,461.395508 319.033936,458.013641 
	C311.589905,466.019592 303.863861,473.155304 297.518768,481.359131 
	C272.129547,514.185730 260.517426,552.139282 258.150085,593.061584 
	C256.998047,612.975403 258.728119,632.819031 262.864746,652.441467 
	C272.668945,698.948975 293.299622,739.168091 329.893829,770.482361 
	C348.785950,786.648621 370.160095,798.153687 394.212158,803.832520 
	C423.328400,810.707092 453.001740,814.398438 482.979523,812.796997 
	C494.783417,812.166382 506.677185,810.101013 518.153198,807.198792 
	C534.447266,803.078308 549.565247,795.721558 564.208252,787.422729 
	C587.450378,774.250366 607.406677,757.197510 624.590454,736.847168 
	C636.299866,722.979919 646.683472,708.083069 653.982422,691.484558 
	C662.370361,672.409729 669.880676,652.958801 674.792969,632.558472 
	C680.861633,607.355957 684.406921,581.803345 685.778076,556.010864 
	C686.534912,541.775391 685.954102,527.389160 684.868469,513.155457 
	C683.498291,495.190399 681.584473,477.220947 678.832947,459.419098 
	C675.611694,438.578278 669.232361,418.531555 661.069885,399.043579 
	C653.005554,379.790161 645.306396,360.383850 637.133179,340.327209 
M422.000000,498.500000 
	C421.999939,510.997589 421.931335,523.495605 422.011993,535.992737 
	C422.316132,583.111694 422.669067,630.230286 423.003174,677.349060 
	C423.053650,684.469788 423.588379,685.348511 430.778687,684.909912 
	C441.683167,684.244812 452.538269,682.786560 463.441010,682.071716 
	C471.287231,681.557251 471.812134,681.423889 472.783539,673.835571 
	C472.931122,672.682739 472.946045,671.508484 472.959412,670.343445 
	C473.308807,639.877014 473.679382,609.410889 473.984772,578.944031 
	C474.353699,542.145569 474.661072,505.346527 475.008759,468.547882 
	C475.060028,463.118835 476.982269,461.147247 482.550842,461.027100 
	C500.178772,460.646790 517.807739,460.305115 535.437317,460.015320 
	C541.767944,459.911224 548.115967,459.734161 554.429199,460.080292 
	C559.373352,460.351410 561.414612,458.793854 561.068970,453.618683 
	C560.471619,444.675873 560.239929,435.704773 560.025757,426.741455 
	C559.849304,419.354462 559.652100,419.013275 552.452698,419.009003 
	C529.289917,418.995239 506.127136,419.019226 482.964386,418.989410 
	C474.083557,418.977966 473.085114,417.849670 472.988647,408.871552 
	C472.684631,380.576935 472.328613,352.282867 471.992126,323.988586 
	C471.986176,323.488770 472.174103,322.830933 471.927551,322.517212 
	C470.970245,321.299286 469.930817,319.251282 468.820374,319.183746 
	C454.240509,318.297760 439.644440,317.672028 425.049744,317.043060 
	C421.575806,316.893341 420.014099,318.572998 419.967194,322.200775 
	C419.733063,340.329895 419.283051,358.456177 419.024719,376.585083 
	C418.891785,385.914948 419.007080,395.248260 418.997681,404.580017 
	C418.988464,413.734192 418.732758,413.997406 409.849884,413.999176 
	C385.853943,414.004028 361.857971,413.994537 337.862030,414.007812 
	C330.397766,414.011932 330.013428,414.414337 330.008148,422.046844 
	C330.001129,432.136780 330.020477,442.226746 330.030792,452.316681 
	C330.037506,458.880768 332.081604,460.964233 338.554901,460.995667 
	C341.054413,461.007812 343.554077,460.999115 346.053650,460.999207 
	C367.383392,461.000061 388.713135,460.982391 410.042847,461.010773 
	C418.247955,461.021698 420.696991,462.377258 421.446106,470.058716 
	C422.331512,479.137482 421.874939,488.347107 422.000000,498.500000 
M675.880981,374.614105 
	C681.668030,383.253510 686.456360,392.825287 693.460876,400.328064 
	C706.009216,413.769012 720.249023,425.615112 733.118774,438.776215 
	C746.885254,452.854431 757.467773,469.414642 766.817200,486.666962 
	C791.461243,532.142151 801.072205,581.543457 802.676453,632.555664 
	C803.308899,652.665955 801.052979,672.962646 798.881836,693.041382 
	C796.151672,718.290100 789.677368,742.795959 780.956726,766.666565 
	C770.893494,794.212280 757.698242,820.225281 741.977234,844.938049 
	C729.592773,864.405945 716.123474,883.096008 700.482361,900.139954 
	C699.167175,901.573059 698.229858,903.352844 697.117004,904.971619 
	C698.965515,904.991699 699.951050,904.400940 700.743835,903.615540 
	C709.712524,894.731140 718.597778,885.762024 727.609009,876.921204 
	C749.829895,855.120728 769.418762,831.077332 788.218933,806.335510 
	C813.505859,773.056885 832.660645,736.681152 842.312927,695.898499 
	C846.679688,677.448242 850.050110,658.575623 851.643921,639.706360 
	C853.359009,619.401672 852.078369,598.949524 848.098511,578.735901 
	C840.970093,542.530212 830.977722,507.226990 816.087952,473.422241 
	C796.712402,429.433167 767.975769,392.584625 730.197937,362.934723 
	C705.974915,343.923370 679.818787,327.888397 652.023315,314.592499 
	C650.561707,313.893341 648.699402,314.031769 647.023743,313.780273 
	C647.312378,315.419189 647.237427,317.237640 647.944641,318.669861 
	C657.063721,337.138214 666.294312,355.551514 675.880981,374.614105 
z"/> -->
<path fill="#4B4B4D" opacity="1.000000" stroke="none" 
	d="
M301.531342,1.000005 
	C302.758392,1.650666 303.445831,2.755035 304.285492,2.886406 
	C334.599823,7.629292 361.169403,20.739544 384.428528,40.231495 
	C402.204437,55.128345 412.684387,75.091881 419.932678,96.924530 
	C425.874512,114.822067 428.519196,133.173752 426.838806,151.843506 
	C423.849426,185.056320 415.943176,217.092209 401.825043,247.478989 
	C388.582428,275.981415 370.270264,301.141937 350.860840,325.595093 
	C325.392456,357.681702 300.362427,390.107635 280.149292,425.858795 
	C256.790222,467.174164 241.184280,511.406647 231.929199,557.927673 
	C228.012482,577.615234 226.183777,597.480591 224.743820,617.506714 
	C221.768860,658.880859 228.092636,698.510925 244.363907,736.507019 
	C259.852509,772.675537 285.511261,799.622192 320.374847,817.781128 
	C347.883484,832.109314 377.309235,839.984558 407.938873,844.147888 
	C432.538330,847.491577 457.220062,848.701477 481.963898,847.856873 
	C496.342621,847.366150 510.669922,845.442322 525.034180,844.344727 
	C526.536621,844.229919 528.133057,845.346252 529.685913,845.891418 
	C528.615601,846.922119 527.703491,848.572510 526.451599,848.892273 
	C499.848907,855.686829 473.273804,862.611023 446.551086,868.906311 
	C429.108459,873.015381 411.101044,873.272827 393.469116,871.652039 
	C375.932281,870.039978 358.356659,866.778503 341.328278,862.247620 
	C321.518585,856.976685 302.016754,850.237122 282.871063,842.863281 
	C260.324707,834.179810 239.591431,821.977783 220.920746,806.447937 
	C195.931976,785.662720 176.933014,760.214966 161.300369,731.872864 
	C143.107651,698.889282 130.957962,663.772339 123.379158,627.077942 
	C118.968483,605.722656 117.915230,583.891357 119.161659,562.122375 
	C121.134071,527.673706 130.808167,495.057343 143.883011,463.305573 
	C157.243500,430.860107 175.417984,401.272552 196.295700,373.208130 
	C224.304535,335.557831 252.534454,298.074341 278.013794,258.602478 
	C299.697327,225.010941 318.477264,190.092209 330.662170,151.831818 
	C336.872192,132.332535 338.316040,112.833115 331.536194,93.301872 
	C327.765472,82.439186 321.986969,72.622185 314.403900,63.808838 
	C293.441223,39.445137 266.195312,24.807177 236.984161,13.111407 
	C236.525238,12.927654 235.873535,13.001488 235.568192,12.697540 
	C234.375977,11.510838 233.287079,10.220359 232.159744,8.968479 
	C233.383011,8.048869 234.499191,6.558887 235.847595,6.305704 
	C242.669998,5.024678 249.557602,4.094569 256.409851,2.965503 
	C257.624969,2.765280 258.780914,2.206101 259.982117,1.406338 
	C273.687561,1.000000 287.375122,1.000000 301.531342,1.000005 
z"/>
<path fill="#03027F" opacity="1.000000" stroke="none" 
	d="
M57.727966,895.254456 
	C39.090061,861.004211 26.518835,824.932556 19.380058,787.060547 
	C16.658875,772.624512 15.028948,757.892334 14.160501,743.220520 
	C13.090163,725.137939 12.237785,706.912659 13.305093,688.868225 
	C14.464796,669.261658 17.032019,649.621094 20.673298,630.313660 
	C23.879126,613.315247 28.294313,596.349854 34.190769,580.101196 
	C42.332222,557.666138 56.104603,538.389526 73.581566,522.090759 
	C84.401360,512.000305 96.476707,503.453735 110.153572,497.487488 
	C112.057907,496.656769 114.301529,496.603790 116.388092,496.190796 
	C115.893181,498.313416 115.872841,500.711609 114.826157,502.513763 
	C108.155586,513.999390 105.098808,526.414856 105.070114,539.576965 
	C105.056747,545.706726 105.947426,551.841248 105.872246,557.966797 
	C105.840302,560.569580 105.006790,563.620544 103.475212,565.676392 
	C87.264236,587.436951 74.769592,611.109802 66.566765,636.966492 
	C61.601463,652.617920 57.695702,668.572021 57.022861,685.062073 
	C56.406116,700.177246 55.277622,715.386230 56.283081,730.426331 
	C57.854073,753.925842 63.197651,776.880066 70.209755,799.383118 
	C82.201736,837.867249 99.548225,873.751953 122.840645,906.687317 
	C135.957855,925.234924 151.575775,941.436096 169.137909,955.861572 
	C197.590698,979.232483 229.743149,995.068420 265.468079,1003.628418 
	C287.759155,1008.969604 310.539001,1010.360413 333.270905,1008.750183 
	C352.694000,1007.374329 372.309998,1005.917847 390.854431,998.932556 
	C395.278931,997.265991 399.564026,995.229309 403.913239,993.362793 
	C403.941772,992.780640 403.970306,992.198425 403.998840,991.616272 
	C400.880066,990.081848 397.912170,987.982056 394.618469,987.103149 
	C370.300049,980.614136 345.998016,974.028137 321.522675,968.176025 
	C307.224365,964.757263 292.611206,962.661194 278.149353,959.919128 
	C266.178314,957.649414 257.513702,950.125488 250.259903,941.105835 
	C245.702728,935.439331 247.870102,929.635681 254.472641,925.822327 
	C262.260223,921.324646 270.723145,923.098816 278.921478,923.201050 
	C286.353455,923.293640 293.766571,924.791138 301.199829,924.906555 
	C334.161072,925.418396 367.144348,926.449036 400.084442,925.714539 
	C422.213654,925.221130 444.282196,922.067993 466.381165,920.142151 
	C487.158325,918.331360 507.069641,913.146667 526.637390,905.963562 
	C533.643555,903.391541 541.521667,902.590271 549.063904,902.208679 
	C565.164062,901.394165 581.374817,900.283325 597.411804,901.307068 
	C619.550110,902.720337 640.053833,910.513977 659.133484,921.838257 
	C671.623230,929.251282 682.628052,938.457642 693.213989,948.441956 
	C708.007812,962.395081 722.143127,976.790894 733.296204,993.868042 
	C737.010620,999.555420 741.075623,1005.217834 743.487915,1011.467773 
	C744.750549,1014.738892 743.546448,1019.629822 741.899170,1023.036133 
	C741.215881,1024.448975 736.258057,1024.738403 733.591980,1024.095703 
	C715.883484,1019.826050 698.359985,1014.760376 680.590515,1010.783997 
	C669.977844,1008.409180 659.065308,1007.173035 648.222107,1006.066589 
	C613.989075,1002.573547 582.379211,1011.952332 551.501160,1025.670410 
	C520.369995,1039.500977 489.915527,1054.572998 460.450134,1071.665283 
	C449.020172,1078.295532 437.066986,1083.683960 423.521240,1083.767090 
	C416.563568,1083.809814 409.588287,1083.350098 402.645081,1082.807861 
	C392.577789,1082.021851 382.513336,1081.121338 372.482208,1079.968750 
	C358.182251,1078.325439 343.755798,1077.209106 329.667480,1074.428345 
	C306.794861,1069.913818 283.911591,1065.086792 261.491943,1058.763794 
	C244.646133,1054.012817 228.270676,1047.293335 212.131943,1040.405151 
	C186.962341,1029.662231 163.823471,1015.115295 143.274872,997.182068 
	C126.543495,982.580200 111.039131,966.477661 95.826965,950.256287 
	C80.559387,933.975952 68.989120,914.889099 57.727966,895.254456 
z"/>
<path fill="#4B4B4D" opacity="1.000000" stroke="none" 
	d="
M637.290100,340.685913 
	C645.306396,360.383850 653.005554,379.790161 661.069885,399.043579 
	C669.232361,418.531555 675.611694,438.578278 678.832947,459.419098 
	C681.584473,477.220947 683.498291,495.190399 684.868469,513.155457 
	C685.954102,527.389160 686.534912,541.775391 685.778076,556.010864 
	C684.406921,581.803345 680.861633,607.355957 674.792969,632.558472 
	C669.880676,652.958801 662.370361,672.409729 653.982422,691.484558 
	C646.683472,708.083069 636.299866,722.979919 624.590454,736.847168 
	C607.406677,757.197510 587.450378,774.250366 564.208252,787.422729 
	C549.565247,795.721558 534.447266,803.078308 518.153198,807.198792 
	C506.677185,810.101013 494.783417,812.166382 482.979523,812.796997 
	C453.001740,814.398438 423.328400,810.707092 394.212158,803.832520 
	C370.160095,798.153687 348.785950,786.648621 329.893829,770.482361 
	C293.299622,739.168091 272.668945,698.948975 262.864746,652.441467 
	C258.728119,632.819031 256.998047,612.975403 258.150085,593.061584 
	C260.517426,552.139282 272.129547,514.185730 297.518768,481.359131 
	C303.863861,473.155304 311.589905,466.019592 319.033936,458.013641 
	C320.884796,461.395508 322.092285,463.901337 323.570068,466.236084 
	C326.196686,470.385986 330.237366,471.967163 334.984619,471.990875 
	C340.621552,472.019012 346.258789,471.997528 353.314362,471.997528 
	C350.267456,475.871735 348.045593,478.800140 345.717285,481.641327 
	C324.050629,508.080688 309.811432,538.173950 303.514923,571.639587 
	C300.651215,586.859985 298.881317,602.621094 299.325989,618.058838 
	C300.235107,649.619385 308.689087,679.267334 328.433197,704.676819 
	C344.277679,725.067627 364.668488,738.611389 390.472565,742.898254 
	C406.609711,745.579163 422.788818,748.195679 439.046753,749.921143 
	C470.845001,753.296082 501.588470,748.708313 530.707947,735.233398 
	C548.496033,727.002075 563.923706,715.538513 577.047729,700.747253 
	C603.023499,671.471558 616.353455,636.561768 622.874878,598.758179 
	C625.623901,582.822632 626.990417,566.574402 627.848022,550.408020 
	C628.663757,535.029785 628.812134,519.520752 627.828613,504.160461 
	C624.879822,458.103424 616.071655,413.389221 597.147400,370.845245 
	C585.907715,345.577026 575.203552,319.954681 568.600769,292.953186 
	C566.447266,284.146606 564.653137,275.068604 564.276672,266.048737 
	C563.466675,246.641708 569.414673,229.745056 585.695435,217.681534 
	C592.073242,212.955795 598.463196,208.245575 604.906799,203.610535 
	C605.927673,202.876221 607.262390,202.578323 609.899414,201.470718 
	C605.839661,211.640015 602.257690,220.612671 598.675659,229.585327 
	C599.190674,230.052994 599.705627,230.520660 600.220581,230.988327 
	C616.851807,208.210831 639.070862,195.207581 667.467468,192.160995 
	C663.555298,197.362457 659.586914,202.522797 655.741821,207.773438 
	C646.052429,221.005035 636.125183,234.075928 626.846436,247.590958 
	C617.879822,260.651398 617.128418,275.186676 621.554749,290.030518 
	C626.569946,306.849030 631.925598,323.566071 637.290100,340.685913 
z"/>
<path fill="#03027F" opacity="1.000000" stroke="none" 
	d="
M422.000061,498.000000 
	C421.874939,488.347107 422.331512,479.137482 421.446106,470.058716 
	C420.696991,462.377258 418.247955,461.021698 410.042847,461.010773 
	C388.713135,460.982391 367.383392,461.000061 346.053650,460.999207 
	C343.554077,460.999115 341.054413,461.007812 338.554901,460.995667 
	C332.081604,460.964233 330.037506,458.880768 330.030792,452.316681 
	C330.020477,442.226746 330.001129,432.136780 330.008148,422.046844 
	C330.013428,414.414337 330.397766,414.011932 337.862030,414.007812 
	C361.857971,413.994537 385.853943,414.004028 409.849884,413.999176 
	C418.732758,413.997406 418.988464,413.734192 418.997681,404.580017 
	C419.007080,395.248260 418.891785,385.914948 419.024719,376.585083 
	C419.283051,358.456177 419.733063,340.329895 419.967194,322.200775 
	C420.014099,318.572998 421.575806,316.893341 425.049744,317.043060 
	C439.644440,317.672028 454.240509,318.297760 468.820374,319.183746 
	C469.930817,319.251282 470.970245,321.299286 471.927551,322.517212 
	C472.174103,322.830933 471.986176,323.488770 471.992126,323.988586 
	C472.328613,352.282867 472.684631,380.576935 472.988647,408.871552 
	C473.085114,417.849670 474.083557,418.977966 482.964386,418.989410 
	C506.127136,419.019226 529.289917,418.995239 552.452698,419.009003 
	C559.652100,419.013275 559.849304,419.354462 560.025757,426.741455 
	C560.239929,435.704773 560.471619,444.675873 561.068970,453.618683 
	C561.414612,458.793854 559.373352,460.351410 554.429199,460.080292 
	C548.115967,459.734161 541.767944,459.911224 535.437317,460.015320 
	C517.807739,460.305115 500.178772,460.646790 482.550842,461.027100 
	C476.982269,461.147247 475.060028,463.118835 475.008759,468.547882 
	C474.661072,505.346527 474.353699,542.145569 473.984772,578.944031 
	C473.679382,609.410889 473.308807,639.877014 472.959412,670.343445 
	C472.946045,671.508484 472.931122,672.682739 472.783539,673.835571 
	C471.812134,681.423889 471.287231,681.557251 463.441010,682.071716 
	C452.538269,682.786560 441.683167,684.244812 430.778687,684.909912 
	C423.588379,685.348511 423.053650,684.469788 423.003174,677.349060 
	C422.669067,630.230286 422.316132,583.111694 422.011993,535.992737 
	C421.931335,523.495605 421.999939,510.997589 422.000061,498.000000 
z"/>
<path fill="#03027F" opacity="1.000000" stroke="none" 
	d="
M675.688843,374.296417 
	C666.294312,355.551514 657.063721,337.138214 647.944641,318.669861 
	C647.237427,317.237640 647.312378,315.419189 647.023682,313.780273 
	C648.699402,314.031769 650.561707,313.893341 652.023315,314.592499 
	C679.818787,327.888397 705.974915,343.923370 730.197937,362.934723 
	C767.975769,392.584625 796.712402,429.433167 816.087952,473.422241 
	C830.977722,507.226990 840.970093,542.530212 848.098511,578.735901 
	C852.078369,598.949524 853.359009,619.401672 851.643921,639.706360 
	C850.050110,658.575623 846.679688,677.448242 842.312927,695.898499 
	C832.660645,736.681152 813.505859,773.056885 788.218933,806.335510 
	C769.418762,831.077332 749.829895,855.120728 727.609009,876.921204 
	C718.597778,885.762024 709.712524,894.731140 700.743835,903.615540 
	C699.951050,904.400940 698.965515,904.991699 697.117004,904.971619 
	C698.229858,903.352844 699.167175,901.573059 700.482361,900.139954 
	C716.123474,883.096008 729.592773,864.405945 741.977234,844.938049 
	C757.698242,820.225281 770.893494,794.212280 780.956726,766.666565 
	C789.677368,742.795959 796.151672,718.290100 798.881836,693.041382 
	C801.052979,672.962646 803.308899,652.665955 802.676453,632.555664 
	C801.072205,581.543457 791.461243,532.142151 766.817200,486.666962 
	C757.467773,469.414642 746.885254,452.854431 733.118774,438.776215 
	C720.249023,425.615112 706.009216,413.769012 693.460876,400.328064 
	C686.456360,392.825287 681.668030,383.253510 675.688843,374.296417 
z"/>
<path fill="#03027F" opacity="1.000000" stroke="none" 
	d="
M694.053284,909.039185 
	C693.576660,909.295959 693.100037,909.552795 692.623474,909.809692 
	C692.768616,909.413269 692.913757,909.016846 693.388367,908.654419 
	C693.717834,908.688354 694.053284,909.039185 694.053284,909.039185 
z"/>
<path fill="#03027F" opacity="1.000000" stroke="none" 
	d="
M693.551514,908.511597 
	C693.750244,908.133789 694.115234,907.932678 694.480225,907.731506 
	C694.465881,908.096436 694.451538,908.461365 694.245239,908.932739 
	C694.053284,909.039185 693.717834,908.688354 693.551514,908.511597 
z"/>
</svg>